# xmcd
#
# Track frame offsets: 
#        150
#        17744
#        32769
#        49785
#        67780
#        85096
#        107524
#        123221
#        138367
#        160567
#        181098
#        200371
#
# Disc length: 2893 seconds
#
# Revision: 0
# Processed by: cddbd v1.5.2PL0 Copyright (c) Steve Scherf et al.
# Submitted via: ExactAudioCopy v1.0b3
#
DISCID=890b4b0c
DTITLE=Craig Pinkney - The City and the Sea
DYEAR=2009
DGENRE=Blues
TTITLE0=All In A Day
TTITLE1=Bird On A Rock
TTITLE2=Here With You
TTITLE3=Lovin Cup
TTITLE4=Alright Now
TTITLE5=Five Minutes
TTITLE6=The Bond
TTITLE7=Warm Place
TTITLE8=Open The Eye
TTITLE9=The Meaning Of It All
TTITLE10=Find The Love
TTITLE11=Lifetime
EXTD=
EXTT0=
EXTT1=
EXTT2=
EXTT3=
EXTT4=
EXTT5=
EXTT6=
EXTT7=
EXTT8=
EXTT9=
EXTT10=
EXTT11=
PLAYORDER=
